<svg id="Акции" xmlns="http://www.w3.org/2000/svg" width="138.8" height="17.2" viewBox="0 0 138.8 17.2"><defs><style>.cls-1{fill:#fff}</style></defs><title>logo-text</title><path class="cls-1" d="M893.8 153.6c.7-3.7 3.3-4.6 6-4.6h5.9v16.7h-15.8l.6-3.3h1.6zm1.8 8.8h6.5v-10.1h-2.8c-1.2 0-2 .9-2.2 2.3zM952.2 149.1v3.3h-5v13.4h-3.5v-13.5h-5V149h13.4zM953.4 153.6c.8-3.7 3.4-4.5 6.1-4.5h5.8v16.7h-3.5v-4h-6.6l-.9 4h-3.5zm2.5 4.8h5.9v-6.1h-2.6a2.6 2.6 0 0 0-2.4 2.3zM977.8 158.7h-6.3v7H968v-16.6h3.5v6.3h6.3v-6.3h3.5v16.7h-3.5v-7zM983.9 165.7v-16.6h3.5v13.4h6.2v-13.4h3.4v13.4h1.9v3.3h-15zM1015.7 154.5c0-3.6 2.3-5.4 5-5.4h8v16.7h-3.5v-5.9h-3.2l-2.8 5.9h-4l3.1-6.4a5.1 5.1 0 0 1-2.6-4.9zm9.6 2v-4.1h-4.6c-1.1 0-1.5.7-1.5 2s.5 2 1.5 2h4.6zM934.6 160c-.5 1-1.7 2.7-3.6 2.7s-4-1.9-4-5.3 1.1-5.8 4-5.8a4.1 4.1 0 0 1 3.7 2.5h3.6a7.1 7.1 0 0 0-7.3-5.5c-4.7 0-7.5 2.6-7.5 8.6s2.7 8.4 7.5 8.4 6.4-1.6 7.2-5.6h-3.6zM1010.4 165.7v-11.9l-5.3 11.9h-4.8v-16.6h3.4v12.7l5.8-12.7h4.3v16.7h-3.4zM918.4 165.7v-11.9l-5.4 11.9h-4.8v-16.6h3.4v12.7l5.8-12.7h4.3v16.7h-3.4z" transform="translate(-889.9 -148.5)"/></svg>