<svg id="Layer_1" data-name="Layer 1" xmlns="http://www.w3.org/2000/svg" width="250" height="124.69" viewBox="0 0 250 124.69"><defs><style>.cls-1{fill:#333c44}</style></defs><title>webzep</title><path class="cls-1" d="M117.73 10.62l-6.87 1.27-13.4 27.88-8.22-23.93-15.27 2.8 5.96 17.11-3.85 7.77-8.35-23.75-15.32 2.8L69.4 70.06l13.02-27.24 8.46 23.3 26.85-55.5z"/><path class="cls-1" d="M187.59 168.26l.48-4.68-9.2 1.68a8.88 8.88 0 0 1-1.79.18h-.47a1.1 1.1 0 0 1-.94-.82 5.37 5.37 0 0 1-.07-2.14l.61-5.94 11-2 .49-4.66-11 2 .57-5.34a5.6 5.6 0 0 1 1.14-3.11 5.35 5.35 0 0 1 3.05-1.46l8.42-1.53.5-4.68-15.21 2.78c-5.23.92-8.15 4-8.68 9l-1.91 18.62c-.27 2.37.24 3.94 1.47 4.66a4.93 4.93 0 0 0 2.17.65h.6a13.88 13.88 0 0 0 2.74-.24zM209.15 164.35a24.59 24.59 0 0 0 9.18-3.64 21.07 21.07 0 0 0 6.55-6.8 22.24 22.24 0 0 0 3-9.15 13.25 13.25 0 0 0-.72-6.41 10 10 0 0 0-3.36-4.47 12.75 12.75 0 0 0-5.56-2.2 16.519 16.519 0 0 0-2.47-.23 23.47 23.47 0 0 0-4.5.39 44.13 44.13 0 0 0-4.53 1.11l2.08-20.27-10.84 2-5.45 52.74zm1-27.51h.62a5 5 0 0 1 3.59 1.87c1.41 1.7 1.85 4.44 1.44 8.36-.46 4.33-1.51 7.55-3.19 9.62a11.1 11.1 0 0 1-6.92 3.87l-1.86.26 2.46-23.37a9.86 9.86 0 0 1 1.65-.45 10.48 10.48 0 0 1 2.19-.16zM70.33 226.23l29.37-47.15-43.22 7.87-.72 7 23.44-4.28L50 236.74l43-7.84.69-6.9zM111.6 220.89a9.15 9.15 0 0 1-1.76.19H109.38a1.08 1.08 0 0 1-.95-.83 5.2 5.2 0 0 1-.08-2.16l.6-5.92 11-2 .47-4.69-11 2 .54-5.32a5.42 5.42 0 0 1 1.17-3.13 5.13 5.13 0 0 1 3-1.44l8.42-1.54.5-4.69-15.2 2.78c-5.25.95-8.17 4-8.68 9l-1.87 18.62c-.24 2.35.26 3.92 1.46 4.64a5.17 5.17 0 0 0 2.19.66h.6a12.53 12.53 0 0 0 2.73-.25l16.05-2.93.47-4.67zM158.55 191.8a10.45 10.45 0 0 0-6.7-4.1c-.67-.13-1.35-.22-2.05-.3-.53 0-1.07-.07-1.64-.08a29.34 29.34 0 0 0-6 .53l-13.52 2.47-4.85 47 10.87-2 1.47-14.32 1.43-.25a54.62 54.62 0 0 0 8.22-2 21.19 21.19 0 0 0 5.77-2.94 21.6 21.6 0 0 0 6-6.55 18.82 18.82 0 0 0 2.77-8c.39-4.08-.2-7.26-1.77-9.46zm-18.13.51a11.27 11.27 0 0 1 2-.18h.44a4.69 4.69 0 0 1 2.73 1.05 7.26 7.26 0 0 1 2.4 4.28 20.81 20.81 0 0 1 .22 5.94 16.66 16.66 0 0 1-3.27 8.73 11 11 0 0 1-6.79 4.11c-.65.11-1.15.17-1.51.19l2.47-23.9zM198 184.63a10 10 0 0 0-6.71-4.11 19 19 0 0 0-2-.29c-.53 0-1.09-.08-1.64-.09a30.74 30.74 0 0 0-6 .51L168 183.14l-4.86 47 10.86-2 1.48-14.34 1.48-.27a56.11 56.11 0 0 0 8.19-2 20.12 20.12 0 0 0 5.75-2.95 21.31 21.31 0 0 0 6-6.53 18.94 18.94 0 0 0 2.71-8.06c.5-3.99-.07-7.18-1.61-9.36zm-18.11.5a8.24 8.24 0 0 1 1.93-.17h.5A4.65 4.65 0 0 1 185 186a7.11 7.11 0 0 1 2.34 4.29 19.44 19.44 0 0 1 .24 5.93 16.16 16.16 0 0 1-3.27 8.7 11.08 11.08 0 0 1-6.79 4.13c-.66.11-1.17.17-1.49.21l2.45-23.94zM217.56 201.57a10.51 10.51 0 0 1-1.82.17h-.45a1.13 1.13 0 0 1-1-.86 5.65 5.65 0 0 1-.05-2.12l.6-5.94 11-2 .5-4.67-11 2 .55-5.36a5.33 5.33 0 0 1 1.19-3.1 5.06 5.06 0 0 1 3-1.44l8.47-1.55.45-4.7-15.19 2.79c-5.22 1-8.14 4-8.68 9l-1.91 18.62c-.26 2.37.22 3.94 1.46 4.7a5.51 5.51 0 0 0 2.18.61h.63a14.66 14.66 0 0 0 2.71-.25l16.08-2.93.42-4.69zM247.25 196.14a12 12 0 0 1-2.34.25h-.7a1.43 1.43 0 0 1-1.15-1.12 10.69 10.69 0 0 1-.06-2.94l4.51-43.3-10.86 2-4.47 43.22c-.33 3 .06 5.2 1.1 6.66a4 4 0 0 0 3.12 1.5h.62a15.21 15.21 0 0 0 3-.28l9.92-1.83.49-4.69zM258.41 158a4 4 0 0 0 2.24.94h.32a5.52 5.52 0 0 0 1.14-.11 7.19 7.19 0 0 0 4-2.25 6.71 6.71 0 0 0 2-4 4 4 0 0 0-1.21-3.51 3.72 3.72 0 0 0-2.22-1h-.38a6.25 6.25 0 0 0-1.1.11 7.25 7.25 0 0 0-4 2.28 6.87 6.87 0 0 0-2 4.06 3.74 3.74 0 0 0 1.21 3.48z" transform="translate(-50 -112.65)"/><path class="cls-1" d="M205.91 54.44l-3.4 32.69 10.87-2.01 3.38-32.64-10.85 1.96z"/><path class="cls-1" d="M300 159.45l-5.34 1L293 177.2l-9-13.14a5.08 5.08 0 0 0-1.1-1.08 3.68 3.68 0 0 0-1.75-.53h-.28a12.62 12.62 0 0 0-2.51.24 5.8 5.8 0 0 0-4.28 3 15.61 15.61 0 0 0-1.74 5.77l-2.63 25.55 5.35-1 2.15-21.1 10.35 16a7.78 7.78 0 0 0 2 2.37 2.53 2.53 0 0 0 1.24.41h.38a7 7 0 0 0 1.32-.1 4.49 4.49 0 0 0 3.42-2.53 15.09 15.09 0 0 0 1.28-5z" transform="translate(-50 -112.65)"/></svg>